<svg width="40" height="40" viewBox="0 0 40 40" fill="none" xmlns="http://www.w3.org/2000/svg">
<path d="M35.7498 18.7117H33.4332C33.1304 15.561 31.7407 12.6138 29.5026 10.3757C27.2644 8.13751 24.3172 6.74787 21.1665 6.44508V4.12842C21.1665 3.7969 21.0348 3.47895 20.8004 3.24453C20.566 3.01011 20.248 2.87842 19.9165 2.87842C19.585 2.87842 19.267 3.01011 19.0326 3.24453C18.7982 3.47895 18.6665 3.7969 18.6665 4.12842V6.44508C15.5296 6.763 12.6002 8.15969 10.3783 10.3968C8.15639 12.6339 6.7797 15.5727 6.48317 18.7117H4.1665C4.00235 18.7117 3.83981 18.7441 3.68815 18.8069C3.53649 18.8697 3.39869 18.9618 3.28262 19.0779C3.16655 19.1939 3.07447 19.3317 3.01165 19.4834C2.94884 19.635 2.9165 19.7976 2.9165 19.9617C2.9165 20.1259 2.94884 20.2884 3.01165 20.4401C3.07447 20.5918 3.16655 20.7296 3.28262 20.8456C3.39869 20.9617 3.53649 21.0538 3.68815 21.1166C3.83981 21.1794 4.00235 21.2117 4.1665 21.2117H6.48317C6.78595 24.3625 8.1756 27.3097 10.4138 29.5478C12.6519 31.786 15.5991 33.1756 18.7498 33.4784V35.7951C18.7498 36.1266 18.8815 36.4445 19.1159 36.679C19.3504 36.9134 19.6683 37.0451 19.9998 37.0451C20.3314 37.0451 20.6493 36.9134 20.8837 36.679C21.1181 36.4445 21.2498 36.1266 21.2498 35.7951V33.4784C24.3994 33.1725 27.3449 31.7819 29.5824 29.5443C31.82 27.3068 33.2106 24.3613 33.5165 21.2117H35.8332C35.9973 21.2117 36.1599 21.1794 36.3115 21.1166C36.4632 21.0538 36.601 20.9617 36.717 20.8456C36.8331 20.7296 36.9252 20.5918 36.988 20.4401C37.0508 20.2884 37.0832 20.1259 37.0832 19.9617C37.0832 19.7976 37.0508 19.635 36.988 19.4834C36.9252 19.3317 36.8331 19.1939 36.717 19.0779C36.601 18.9618 36.4632 18.8697 36.3115 18.8069C36.1599 18.7441 35.9973 18.7117 35.8332 18.7117H35.7498ZM19.9165 31.0284C17.7277 31.0284 15.5881 30.3794 13.7682 29.1633C11.9483 27.9473 10.5298 26.2189 9.69223 24.1968C8.85463 22.1746 8.63547 19.9495 9.06248 17.8027C9.48949 15.656 10.5435 13.6841 12.0912 12.1364C13.6389 10.5887 15.6108 9.53474 17.7575 9.10773C19.9042 8.68072 22.1294 8.89987 24.1515 9.73748C26.1737 10.5751 27.9021 11.9935 29.1181 13.8134C30.3341 15.6333 30.9832 17.773 30.9832 19.9617C30.9832 22.8983 29.8178 25.7149 27.7428 27.793C25.6679 29.871 22.8531 31.0407 19.9165 31.0451V31.0284Z" fill="#F8F8F8"/>
<path d="M27.4668 19.9783C27.4668 21.4756 27.0226 22.9392 26.1904 24.1838C25.3583 25.4285 24.1755 26.3984 22.7919 26.9706C21.4083 27.5428 19.8861 27.6917 18.4178 27.3983C16.9496 27.105 15.6014 26.3827 14.5438 25.3228C13.4863 24.2629 12.7669 22.9131 12.4769 21.4442C12.1868 19.9754 12.339 18.4534 12.9143 17.0711C13.4895 15.6888 14.462 14.5082 15.7085 13.6787C16.955 12.8493 18.4196 12.4083 19.9168 12.4116C20.9097 12.4116 21.8928 12.6075 22.8099 12.9879C23.727 13.3684 24.5601 13.926 25.2614 14.6289C25.9627 15.3317 26.5185 16.166 26.8969 17.0839C27.2754 18.0019 27.469 18.9854 27.4668 19.9783Z" fill="#F8F8F8"/>
</svg>
